<?xml version="1.0" encoding="UTF-8"?>
<svg id="Layer_2" data-name="Layer 2" xmlns="http://www.w3.org/2000/svg" viewBox="0 0 226.28 281.53">
  <defs>
    <style>
      .cls-1 {
        stroke-linecap: round;
      }

      .cls-1, .cls-2, .cls-3, .cls-4, .cls-5 {
        stroke-miterlimit: 10;
      }

      .cls-1, .cls-3, .cls-4 {
        fill: none;
      }

      .cls-1, .cls-5 {
        stroke: #dd2d26;
        stroke-width: 3px;
      }

      .cls-2 {
        stroke: #ed9fb7;
      }

      .cls-2, .cls-3 {
        stroke-width: .25px;
      }

      .cls-2, .cls-6, .cls-7 {
        fill: #bd728a;
      }

      .cls-8 {
        fill: #be748c;
      }

      .cls-9 {
        fill: #d6788c;
      }

      .cls-9, .cls-6 {
        opacity: .5;
      }

      .cls-10 {
        fill: #5f3f30;
      }

      .cls-11 {
        fill: #fbc0ae;
      }

      .cls-12 {
        fill: #fff;
      }

      .cls-13 {
        fill: #ed1c24;
      }

      .cls-3 {
        stroke: #bd728a;
      }

      .cls-14 {
        fill: #a8cf40;
      }

      .cls-15, .cls-5 {
        fill: #ec008c;
      }

      .cls-16 {
        fill: #ed9fb7;
      }

      .cls-17 {
        fill: #584b47;
      }

      .cls-18 {
        opacity: .91;
      }

      .cls-19 {
        fill: #9d8063;
      }

      .cls-20 {
        fill: #f9c4db;
      }

      .cls-21 {
        fill: #fbc0ad;
      }

      .cls-4 {
        stroke: #130905;
        stroke-width: .75px;
      }

      .cls-22 {
        fill: #130905;
      }

      .cls-23 {
        fill: #a92022;
      }
    </style>
  </defs>
  <g id="Layer_1-2" data-name="Layer 1">
    <g id="baggrund_overall">
      <g class="cls-18">
        <g>
          <path class="cls-20" d="M224.78,1.73v278.3H1.85v-1.38h174.52l-52.61-154.99h-62.41c0-1.02-.08-1.72-.1-1.83.01-1.04.09-12.03.58-113.05.01-1.72.02-3.46.03-5.23v-1.82h162.92Z"/>
          <path class="cls-16" d="M123.76,123.66l52.61,154.99H2.07l47.22-144.36c1.66.19,3.47-.38,5.74-.68,5.54-.73,6.31-6.83,6.32-9.95h62.41Z"/>
          <path class="cls-15" d="M2.18,123.62h-.33V1.73h60.01v1.82c-.01,1.77-.02,3.51-.03,5.23h-.08l-23.43,47.74-15.23,31.02c-.66-28.84-4.14-60.15-4.14-60.15,0,0-1.83,38.7-.42,69.44l-15.46,31.49c-.71-1.93-.89-3.76-.89-4.7Z"/>
          <path class="cls-15" d="M61.25,121.83c.02.11.1.81.1,1.83h-8.58l-2.72,8.3c-.08.26-.17.52-.26.8l-.5,1.53c-2.57-.29-4.75-2.4-7.61-10.21l-1.3-66.55-2.06-1.01L61.75,8.78h.08c-.49,101.02-.57,112.01-.58,113.05Z"/>
          <path class="cls-15" d="M52.77,123.66h8.58c-.01,3.12-.78,9.22-6.32,9.95-2.27.3-4.08.87-5.74.68l.5-1.53.26-.8,2.72-8.3Z"/>
          <path class="cls-13" d="M50.05,131.96l-.26.8c.09-.28.18-.54.26-.8Z"/>
          <path class="cls-20" d="M3.07,128.32c1.35,3.66,4.58,7.69,12.02,6.69,3-.4,4.99-4.62,6.25-11.19,1.14,5.33,2.65,8.92,4.62,9.84,11.77,5.51,15.74-8.48,15.74-8.48l-.02-1.1c2.86,7.81,5.04,9.92,7.61,10.21L2.07,278.65h-.22V123.62h.33c0,.94.18,2.77.89,4.7Z"/>
          <path class="cls-15" d="M41.68,124.08l.02,1.1s-3.97,13.99-15.74,8.48c-1.97-.92-3.48-4.51-4.62-9.84,1.72-8.98,2.06-22.34,1.75-36.28l15.23-31.02,2.06,1.01s-6.5,41.82-.59,60.91c.66,2.15,1.29,4.02,1.89,5.64Z"/>
          <path class="cls-13" d="M40.38,57.53l1.3,66.55c-.6-1.62-1.23-3.49-1.89-5.64-5.91-19.09.59-60.91.59-60.91Z"/>
          <path class="cls-15" d="M23.09,87.54c.31,13.94-.03,27.3-1.75,36.28-1.46-6.79-2.33-16.42-2.81-26.99l4.56-9.29Z"/>
          <path class="cls-15" d="M23.09,87.54l-4.56,9.29c-1.41-30.74.42-69.44.42-69.44,0,0,3.48,31.31,4.14,60.15Z"/>
          <path class="cls-15" d="M18.53,96.83c.48,10.57,1.35,20.2,2.81,26.99-1.26,6.57-3.25,10.79-6.25,11.19-7.44,1-10.67-3.03-12.02-6.69l15.46-31.49Z"/>
        </g>
        <g>
          <path class="cls-1" d="M61.86,1.73h162.92v278.3H1.85V1.73h60.01Z"/>
          <polyline class="cls-1" points="61.35 123.66 123.76 123.66 176.37 278.65 2.07 278.65 49.29 134.29"/>
          <path class="cls-1" d="M61.25,121.83c.02.11.1.81.1,1.83-.01,3.12-.78,9.22-6.32,9.95-2.27.3-4.08.87-5.74.68-2.57-.29-4.75-2.4-7.61-10.21-.6-1.62-1.23-3.49-1.89-5.64-5.91-19.09.59-60.91.59-60.91l1.3,66.55.02,1.1s-3.97,13.99-15.74,8.48c-1.97-.92-3.48-4.51-4.62-9.84-1.46-6.79-2.33-16.42-2.81-26.99-1.41-30.74.42-69.44.42-69.44,0,0,3.48,31.31,4.14,60.15.31,13.94-.03,27.3-1.75,36.28-1.26,6.57-3.25,10.79-6.25,11.19-7.44,1-10.67-3.03-12.02-6.69-.71-1.93-.89-3.76-.89-4.7,0-1.02.21-.99.21,1.08"/>
          <path class="cls-1" d="M61.25,121.93v-.1"/>
          <path class="cls-1" d="M61.86,3.55c-.01,1.77-.02,3.51-.03,5.23-.49,101.02-.57,112.01-.58,113.05"/>
        </g>
      </g>
    </g>
    <g id="hover_bag">
      <path class="cls-7" d="M168.47,197.12s-1.55,1.21-3.27,3.13c-1.83,2.04-3.85,4.89-4.41,7.94-2.15,11.82-7.72,29.61,2.61,25.86s41.93-13.6,41.93-13.6c3.09-2.53,22.51-4.62,11.8-12.76-2.94-2.24-18.89-20.1-25.34-18.64-8.09,1.82-23.32,8.08-23.32,8.08Z"/>
      <path class="cls-2" d="M173.82,204.88l17.76-5.66c4.24-5.7,4.4-8.24,3.59-9.49-3.01-4.6-21.67,4.84-26.19,7.12-1.23.62-3.26,1.7-3.27,3.13-.02,2.6,6.63,4.49,8.11,4.89Z"/>
      <path class="cls-7" d="M168.98,196.87s-7.49-6.47-2.47-12.22c5.02-5.76,5.21-5.24,11.11-5.49,5.9-.25,6.05-.64,10.23.94,4.18,1.58,4.45,8.7,4.45,8.7l-2.72.62s.24-4.3-1.31-5.33c-.35-.23-.77-.64-6.46-1.68-2.22-.41-2.85-.48-3.68-.48-2.6.01-4.13.76-4.5.95-.57.29-.94.57-1.39.89-.73.54-2.19,1.64-3.29,3.46-.8,1.34-1.71,2.26-1.22,3.24.51,1.02,4.58,5.42,4.74,5.01.16-.41-3.49,1.39-3.49,1.39Z"/>
    </g>
    <g id="gardin_hover">
      <path class="cls-5" d="M99.26,1.73c2.01,3.2,58.87.69,83.24.13,0,0,22.57,2.73,23.41,4.49s3.17,2.5-17.93,20.25c-4.56,3.83-15.19,13.8-24.83,23.55-9.77,9.9-18.51,19.58-18.83,22.44-1.11,10.04-7.95,16.9,8.27,15.08s36.86-5.43,42.48-9.32c5.62-3.89,12.73,1.74,7.48,4.51-5.25,2.77-7.8,8.86-.67,6.83s8.19.01,6.69,1.23-59.91.15-66.1-2.65c-6.19-2.8-8.92-22.71-9.43-24.27s-4.18-27.03-4.18-27.03c0,0,38-23.61,44.98-24.19,0,0,24.82-7.88,28.26-6.7s.63,4.89-6.91,12.46c-7.53,7.57-36.03,31.95-36.03,31.95,0,0,20.06,7.65,22.77,10.48,2.71,2.82,17.11,8.83,20.62,14.68,3.51,5.85,3.85,5.73.36,9.76,0,0,7.36,1.37,7.94,4.26s-6.53,4.33-9.77,3.69c-3.23-.64-59.81.42-61.82-3.18s-10.82-50.81-12.24-52.06-3.12,2.84-8.14,1.88c-5.02-.96-26.2-36.55-19.64-38.28Z"/>
    </g>
    <g id="pige_hover">
      <g>
        <g>
          <path class="cls-23" d="M221.02,146.73s.62-.4.1.13c-.04-.06-.08-.1-.09-.12h0Z"/>
          <path class="cls-23" d="M221.12,146.86c.37.53,1.57,2.64-.1,5.85,1.28-2.8.36-5.2.07-5.82l.03-.03Z"/>
          <path class="cls-8" d="M221.09,146.89c.29.62,1.21,3.02-.07,5.82-.05.11-.12.21-.18.31-.07.09-.15.19-.23.28-.02.03-.05.05-.08.08-2.65,2.63-12.63,2.86-12.63,2.86l-.47-2.1c3.5-.78,7.47-2.07,10.01-4.15,2.24-1.83,3.24-2.71,3.65-3.1Z"/>
          <path class="cls-19" d="M221.03,146.74s.03.07.06.15c-.41.39-1.41,1.27-3.65,3.1l3.58-3.26h0Z"/>
          <path class="cls-19" d="M220.61,153.3c.08-.09.16-.19.23-.28-.07.1-.14.19-.23.28Z"/>
          <path class="cls-8" d="M217.15,157.33l-2.69,3.26s-2.4-.52-5.83-1.28l.35-2.94,8.17.96Z"/>
          <path class="cls-23" d="M207.9,156.24s9.98-.23,12.63-2.86c-2.83,3.04-12.63,2.86-12.63,2.86Z"/>
          <path class="cls-8" d="M208.63,159.31c3.43.76,5.83,1.28,5.83,1.28,0,0-17.48-.59-14.48-5.32-.05,1.07.66,2.24,3.45,2.87,1.86.42,3.64.82,5.2,1.17Z"/>
          <path class="cls-11" d="M194.78,141.29c7.15,8.29,22.66,8.7,22.66,8.7-2.54,2.08-6.51,3.37-10.01,4.15-4.02.89-7.45,1.13-7.45,1.13.05-1.21,1.06-2.29,1.06-2.29,0,0-4.32-1.49-32.81-12.23-3.31-1.25-6.24-2.5-8.82-3.72.26-.03.52-.02.78-.02,2.01.04,4.5-.18,5.27-1.88.6-1.32-.24-2.83-.04-4.24.13-.93.7-1.75,1.16-2.58.48-.86.85-1.77,1.12-2.71l27.08,15.69Z"/>
          <path class="cls-8" d="M208.98,156.37l-.35,2.94c-1.56-.35-3.34-.75-5.2-1.17-2.79-.63-3.5-1.8-3.45-2.87,0,0,3.43-.24,7.45-1.13l.47,2.1,1.08.13Z"/>
          <path class="cls-8" d="M195.37,67.1l-.56-5.18c.8.69,5.66,5.65-5.69,16.85.67-.84,6.05-7.71,6.25-11.67Z"/>
          <path class="cls-8" d="M189.12,78.77l5.96-4.88.29,4.89-.02.02-9.22,6.5c-2.42.88-3.78.88-4.53.5-.02,0-.04-.02-.05-.03-.14-.09-.28-.2-.4-.33,0,0,10.78-10.7,9.66-17.03h0s.01-.02.03-.03c.17-.15,1.1-.97,2.08-2.55.02-.02.04-.05.06-.08h.01s.03-.07.03-.07c.6-.99,1.21-2.27,1.68-3.85,0,0,.04.03.11.09l.56,5.18c-.2,3.96-5.58,10.83-6.25,11.67Z"/>
          <path class="cls-8" d="M186.13,85.3l9.22-6.5c-.53.49-10.02,9.28-13.75,7,.75.38,2.11.38,4.53-.5Z"/>
          <path class="cls-19" d="M194.8,61.84v.08c-.06-.06-.1-.09-.1-.09.02-.04.09-.03.1.01Z"/>
          <path class="cls-19" d="M193.02,65.68l1.68-3.85c-.47,1.58-1.08,2.86-1.68,3.85Z"/>
          <path class="cls-23" d="M193.02,65.68l-.03.06h-.01s.03-.04.04-.06Z"/>
          <path class="cls-19" d="M192.92,65.83c-.98,1.58-1.91,2.4-2.08,2.55,1.13-1.3,1.86-2.25,2.08-2.55Z"/>
          <path class="cls-11" d="M190.81,68.41c1.12,6.33-9.66,17.03-9.66,17.03.12.13.26.24.4.33-1.38-.76-.49-2.91-.49-2.91-1.65.85-11.29,5.88-20.82,10.85-.03-.94.03-1.89-.05-2.82-.16-1.86-1.04-3.68-2.36-5.19l11.89-4.2c9.14-.79,17.32-8.81,21.09-13.09Z"/>
          <path class="cls-8" d="M170.88,105.88c.08.61.12,1.25-.15,1.81-.51,1.1-1.96,1.53-2.89,2.38-1.2,1.08-1.46,2.77-1.24,4.29.23,1.52.88,2.96,1.25,4.46.56,2.23.5,4.58-.15,6.78l-24.52-14.2s-3.13-5.85-28.33,9.51l.3-10.6s10.58,3.8,24.75-5.98c0,0,10.11-5.28,20.34-10.62.01.44.04.88.12,1.31.24,1.36,1.04,2.77,2.47,3.24,1.46.48,3.24-.13,4.58.59.6.32,1.01.86,1.36,1.4,1.12,1.72,1.84,3.65,2.11,5.63Z"/>
          <path class="cls-8" d="M58.36,122.12h.01c1.42-.12,2.57-.37,3.68-.61,0,0,.24-.05.64-.15l.24-.06c.11-.02.24-.05.37-.09.46-.11.91-.23,1.36-.36.32-.09.65-.19.98-.29.28-.09.59-.19.92-.31.04-.01.08-.02.11-.04,4.03-1.36,7.83-3.32,11.27-5.7.16.25.43.71.71,1.33,1.64,12.16-9.43,14.58-9.43,14.58h0c.19.24,3.19,3.76,10.13,6.31.32.12.64.24.98.35.77.26,1.52.48,2.25.65.25.07.5.13.76.18.01,0,.01.01.02.01,4.75,1.07,9.88,1.04,10.08-2.1.01-.07.02-.14.02-.21.02-.27-.01-.55-.1-.84-.07-.3-.1-.63-.1-.98.07-2.9,2.95-8.58,7.88-17.07,3-4.66,5.75-8.62,5.94-9.94,0-.03,0-.05.02-.08.54-.89,1.09-1.8,1.65-2.73.07-.12.14-.24.2-.36,0,0,.01-.01.02-.01,1.11-.97,2.29-1.44,2.29-1.44l46.56-16.46c1.32,1.51,2.2,3.33,2.36,5.19.08.93.02,1.88.05,2.82-10.23,5.34-20.34,10.62-20.34,10.62-14.17,9.78-24.75,5.98-24.75,5.98l-.3,10.6c25.2-15.36,28.33-9.51,28.33-9.51l24.52,14.2c-.27.94-.64,1.85-1.12,2.71-.46.83-1.03,1.65-1.16,2.58-.2,1.41.64,2.92.04,4.24-.77,1.7-3.26,1.92-5.27,1.88-.26,0-.52-.01-.78.02-19.39-9.2-19.51-17.29-19.51-17.48l-25.93,22.61-1.51,1.31s-1.03,8.69-4.82,16.11c-3.68,6.05-8.65,9.86-13.8,10.38h-.03c-1.08,0-2.22-.13-3.42-.4-9.94-2.26-13.29-8.35-14.26-13.48-.01-.03-.01-.07-.01-.09-.01-.05-.01-.07-.01-.07h-.01c-.78-4.35.12-7.97.12-7.97-5.16.12-11.65-4.91-17.18-10.42l-.06-.07-10.2-11.93c.9.17,2.45.4,3.06.32.17-.03.69-.13.54-.19-.02-.58-.06-1.24-.15-1.96l2.96-1.48s0-.09-.02-.14c1.18.01,1.57.18,3.19.04Z"/>
          <path class="cls-8" d="M159.41,137.03c-.35.03-.69.1-.99.26-.74.41-1,1.26-1.2,2.03-1.4,5.53-2.8,11.07-4.2,16.6-2.6-2.72-5.63-4.92-7.29-8.2-.47-.93-.87-1.9-1.49-2.76-.83-1.12-2.02-1.98-3.19-2.81-3.19-2.29-7.24-4.7-11-3.31-1.34.49-2.51,1.46-3.96,1.56-1,.07-1.97-.3-2.95-.52-3.21-.73-6.79.2-9.15,2.3l-.02-.02,25.93-22.61c0,.19.12,8.28,19.51,17.48Z"/>
          <path class="cls-8" d="M157.83,85.7l-46.56,16.46s-1.18.47-2.29,1.44c3.22-5.75,1.66-12.88,1.31-19.37,3.82,1.24,8.29.66,11.58-1.5,1.16-.76,2.21-1.72,3.58-2.07,2.73-.72,5.41,1.19,8.23,1.49,3.61.38,7.16-1.9,10.73-1.28,1.18.2,2.28.71,3.47.84,1.12.11,2.25-.12,3.38-.11s2.38.36,2.91,1.26c1.39.69,2.66,1.67,3.66,2.84Z"/>
          <path class="cls-8" d="M113.97,142.16l.02.02c-.27.23-.51.48-.74.74-.87,6.5-2.89,12.19-5.61,16.66,3.79-7.42,4.82-16.11,4.82-16.11l1.51-1.31Z"/>
          <path class="cls-7" d="M108.96,103.61c-.06.12-.13.24-.2.36-.56.93-1.11,1.84-1.65,2.73.2-1.32,1.01-2.34,1.85-3.09Z"/>
          <path class="cls-8" d="M107.11,106.7s-.02.05-.02.08c-.19,1.32-2.94,5.28-5.94,9.94,1.51-2.59,3.21-5.43,5.07-8.54.3-.49.59-.98.89-1.48Z"/>
          <path class="cls-19" d="M93.84,169.96c5.15-.52,10.12-4.33,13.8-10.38-2.82,5.53-7.18,10.37-13.8,10.38Z"/>
          <path class="cls-11" d="M105.3,102.31c.26,2.33-.06,3.9-.64,4.94-1.47,2.62-4.61,1.97-4.61,1.97-.33-.41-21.59,5.44-21.59,5.44.08.4.14.8.19,1.18-.28-.62-.55-1.08-.71-1.33-2.18-.2-4.35-.4-6.53-.6-3-.27-6.06-.55-8.86-1.59-.61-.22-1.22-.49-1.7-.91.01-.01.02-.01.02-.01.74-10.6,32.5-6.66,36.38-8.16,3.88-1.49-8.05-23.64-8.05-23.64-10.44,5.98-9.4-11.55-8.05-6.53,1.34,5.03,5.07,2.99,5.07,2.99-6.42-8.01,2.83-13.72,1.79-12.07-1.05,1.65.29,8.68.29,8.68l.19-.93,2.68.17c0,.05.37-.23,1.31-1.01,5.07-4.21,8.95,0,8.95,0l-7.46,2.45c3.58,3.67-.89,5.43-.89,5.43,3.13-.81,11.33,15.36,12.22,23.53Z"/>
          <path class="cls-21" d="M96.36,64.11c2.06.66-5.19,7.56-5.19,7.8l-2.68-.17c.09-.42.22-1.04.41-1.93.6-2.85,4.92-6.52,7.46-5.7Z"/>
          <path class="cls-19" d="M93.37,134.77c.09.29.12.57.1.84,0-.26-.03-.54-.1-.84Z"/>
          <path class="cls-8" d="M93.27,133.79c-.09-4.19,4.1-11.19,7.88-17.07-4.93,8.49-7.81,14.17-7.88,17.07Z"/>
          <path class="cls-14" d="M93.27,133.79c0,.35.03.68.1.98-.08-.28-.12-.6-.1-.98Z"/>
          <path class="cls-8" d="M93.81,169.96c-2.1.21-7.61.14-12.29-3.8-4.45-3.76-5.27-9.09-5.39-10.08.97,5.13,4.32,11.22,14.26,13.48,1.2.27,2.34.4,3.42.4Z"/>
          <path class="cls-8" d="M93.45,135.82c-.2,3.14-5.33,3.17-10.08,2.1,5.57,1.19,9.72.17,10.08-2.1Z"/>
          <path class="cls-14" d="M82.59,137.73c.26.07.51.13.76.18-.26-.05-.51-.11-.76-.18Z"/>
          <path class="cls-8" d="M78.65,115.84c.65,1.43,1.35,3.73.78,6.33-.96,4.32-5.05,7.71-10.21,8.25,0,0,11.07-2.42,9.43-14.58Z"/>
          <path class="cls-11" d="M72.39,75.56c1.44,2.37,2.45,4.87,3.69,8.11,3.28,8.57-17,22.56-17,22.56l-5.07-.27c1.73,6.56,6.5,5.53,6.84,5.45.48.42,1.09.69,1.7.91,2.8,1.04,5.86,1.32,8.86,1.59,2.18.2,4.35.4,6.53.6-4.66,2.87-8.67,4.75-11.27,5.7-.03.02-.07.03-.11.04-.63.22-1.26.42-1.9.6-.45.13-.9.25-1.36.36-.12.03-.25.06-.37.09l-.24.06c-1.42.33-2.87.59-4.32.76h-.01c-1.62.14-2.01-.03-3.19-.04-.24-1.4-.97-4.41-3.45-7.18-1.05-1.17-2.16-2.01-3.15-2.62.01-.07.01-.15.01-.23,0-1.72-2.28-5.73-4.79-9.65.85-.01,1.01-.06-.07-.11.02.04.05.07.07.11-2.16.05-8.83-.09-11.47-.8,2.12.14,4.57.29,7.42.55,2.7.25-4.17-3.27-5.09-5.59-.95,0-2.62-.4-3.47-.78-.93-.42-1.95-.94-2.37-1.77-.06-.12-.11-.24-.14-.37-.15-.58.02-1.17.25-1.72.5-1.15,1.37-2.24,2.63-2.73,1.25-.5,2.9-.24,3.67.79-.82-2.95.07-6.84,2.19-9.19.57-.63,1.24-1.21,1.72-1.91.56-.84.82-1.81,1.23-2.72,1.88-4.22,7.22-6.92,12.15-6.13,1.83.29,3.78.99,5.46.26,2.23-.98,3.16-4.2,5.48-4.35,4.58,3.82,7.11,6.62,8.94,9.62ZM70.33,83.29c0-1.91-1.05-3.46-2.34-3.46-.57,0-1.09.3-1.49.79,0,0-.01,0-.01,0-.26.11-.47.47-.54.95-.2.51-.31,1.09-.31,1.71,0,1.91,1.05,3.46,2.35,3.46s2.34-1.55,2.34-3.46ZM61.61,96.21c0-1.07-1.82-1.94-4.06-1.94s-4.06.87-4.06,1.94,1.82,1.94,4.06,1.94,4.06-.87,4.06-1.94ZM54.52,83.29c0-1.91-1.06-3.46-2.35-3.46s-2.35,1.55-2.35,3.46,1.05,3.46,2.35,3.46,2.35-1.55,2.35-3.46Z"/>
          <path class="cls-8" d="M59.04,137.53c5.53,5.51,12.02,10.54,17.18,10.42,0,0-.9,3.62-.12,7.96l-17.06-18.38Z"/>
          <path class="cls-19" d="M76.11,155.92s0,.02.01.07c-.01-.03-.02-.05-.02-.08h.01Z"/>
          <path class="cls-8" d="M75.78,134.77c.66.65,1.96,1.34,3.58,1.96-6.94-2.55-9.94-6.07-10.13-6.3l6.55,4.34Z"/>
          <path class="cls-14" d="M66.67,120.21c2.6-.95,6.61-2.83,11.27-5.7-3.44,2.38-7.24,4.34-11.27,5.7Z"/>
          <path class="cls-22" d="M67.99,79.83c1.29,0,2.34,1.55,2.34,3.46s-1.05,3.46-2.34,3.46-2.35-1.55-2.35-3.46c0-.62.11-1.2.31-1.71-.03.12-.04.25-.04.39,0,.76.34,1.38.75,1.38s.76-.62.76-1.38-.34-1.38-.76-1.38c-.05,0-.11.01-.16.03.4-.49.92-.79,1.49-.79Z"/>
          <path class="cls-12" d="M66.66,80.59c.42,0,.76.61.76,1.38s-.34,1.38-.76,1.38-.75-.62-.75-1.38c0-.14.01-.27.04-.39.14-.36.32-.68.54-.95,0,0,.01,0,.01,0,.05-.02.11-.03.16-.03Z"/>
          <path class="cls-12" d="M66.49,80.63c-.22.27-.4.59-.54.95.07-.48.28-.84.54-.95Z"/>
          <path class="cls-11" d="M66.56,120.25c-.33.12-.64.22-.92.31-.33.1-.66.2-.98.29.64-.18,1.27-.38,1.9-.6Z"/>
          <path class="cls-19" d="M65.34,16.81h-.01s-.01.01-.02.01c.01,0,.02-.01.03-.01Z"/>
          <path class="cls-17" d="M65.31,16.82h.02c-.18.36-4.91,9.72-6.73,23.41.43-9.76,1.77-19.71,5.28-22.65.46-.23.94-.49,1.43-.76Z"/>
          <path class="cls-19" d="M65.31,16.82c-.07.03-.26.1-.55.19.18-.08.36-.14.55-.19Z"/>
          <path class="cls-19" d="M64.76,17.01c-.31.15-.6.34-.88.57-4.39,2.27-7.42,3.28-9.49,3.57,1.67-.96,8.36-3.41,10.37-4.14Z"/>
          <path class="cls-17" d="M63.82,65.93c-.13-.01-.25-.01-.37.01-1.36-1.15-2.91-2.38-4.67-3.74l5.04,3.73Z"/>
          <path class="cls-11" d="M63.3,121.21c-.13.04-.26.07-.37.09.12-.03.25-.06.37-.09Z"/>
          <path class="cls-11" d="M62.69,121.36c-.4.1-.64.15-.64.15-1.11.24-2.26.49-3.68.61,1.45-.17,2.9-.43,4.32-.76Z"/>
          <ellipse class="cls-22" cx="57.55" cy="96.21" rx="4.06" ry="1.94"/>
          <path class="cls-10" d="M58.78,62.2c1.76,1.36,3.31,2.59,4.67,3.74-2.32.15-3.25,3.37-5.48,4.35-1.68.73-3.63.03-5.46-.26-4.93-.79-10.27,1.91-12.15,6.13-.41.91-.67,1.88-1.23,2.72-.48.7-1.15,1.28-1.72,1.91-2.12,2.35-3.01,6.24-2.19,9.19-.77-1.03-2.42-1.29-3.67-.79-1.26.49-2.13,1.58-2.63,2.73-.23.55-.4,1.14-.25,1.72.03.13.08.25.14.37l-2.66,1.04c-2.16-4.78-3.98-12.69-4.95-25.51-6.17,1.22-7.66-9.62-7.23-22.85,0-.03,0-.07,0-.1,2.53-25.9,5.43-41.71,5.59-42.52-.48,5,4.9,9.37,8.36,11.63.34.22.69.44,1.06.67.24.14.45.27.65.38.2.12.41.23.62.35s.36.2.43.23c.02.01.03.02.05.03,0,0,0-.01-.01-.02-2.03-6.02,2.32-8.89,7.8-10.22l.15-.03c1.94-.36,3.66-.62,5.17-.81,5.32-.49,10.16-.07,10.16-.07,0,0-.06,0-.17.02-.07.01-.16.02-.27.04-.06,0-.13.01-.21.03-.13.02-.28.05-.44.08-.02,0-.03.01-.04.01-.17.03-.33.06-.49.11-.44.1-.85.22-1.23.37-.01,0-.02,0-.04,0-.22.08-.42.16-.61.26-.22.1-.44.2-.65.33-1.92,1.05-3.57,2.98-2.53,6.46.41,2.16,1.54,4.34,2.77,5.94.12.23.3.47.55.68,1.55,1.75,3.08,2.45,3.36.9,0-.07.15-.17.38-.3,2.07-.29,5.1-1.3,9.49-3.57-3.51,2.94-4.85,12.89-5.28,22.65-.87,6.51-1.08,14,.18,21.97Z"/>
          <path class="cls-19" d="M48.78,125.53l10.2,11.93c-6.41-6.39-11.53-13.42-11.82-13.81l1.55,1.8-.09.05c.05.01.1.02.16.03Z"/>
          <path class="cls-19" d="M58.6,40.23c-.5,11.11.18,21.97.18,21.97-1.26-7.97-1.05-15.46-.18-21.97Z"/>
          <path class="cls-8" d="M55.17,122.08s.01.1.02.14l-2.96,1.48c-.04-.38-.1-.78-.18-1.2,1.91-.39,2.5-.41,2.5-.41.23-.01.43-.01.62-.01Z"/>
          <path class="cls-7" d="M55.17,122.08c-.19,0-.39,0-.62.01,0,0-.59.02-2.5.41-.2-1.16-.51-2.44-1-3.79-.97-2.7-2.28-4.68-3.11-5.79.15-.01.29-.07.4-.16.13-.11.2-.27.23-.48.99.61,2.1,1.45,3.15,2.62,2.48,2.77,3.21,5.78,3.45,7.18Z"/>
          <path class="cls-17" d="M54.39,21.15c-.23.13-.37.23-.38.3-.28,1.55-1.81.85-3.36-.9.63.52,1.76.88,3.74.6Z"/>
          <path class="cls-22" d="M52.17,79.83c1.29,0,2.35,1.55,2.35,3.46s-1.06,3.46-2.35,3.46-2.35-1.55-2.35-3.46,1.05-3.46,2.35-3.46ZM52.07,81.97c0-.77-.34-1.38-.76-1.38s-.75.61-.75,1.38.34,1.38.75,1.38.76-.62.76-1.38Z"/>
          <path class="cls-19" d="M53.84,6.23c-.09.01-.18.03-.27.04.11-.02.2-.03.27-.04Z"/>
          <path class="cls-19" d="M52.92,6.38c.16-.03.31-.06.44-.08-.15.03-.3.05-.44.08Z"/>
          <path class="cls-17" d="M52.39,6.5c.16-.05.32-.08.49-.11-.16.03-.32.07-.49.11Z"/>
          <path class="cls-7" d="M52.38,125.66c.15.06-.37.16-.54.19-.61.08-2.16-.15-3.06-.32l-.07-.08,3.52-1.75c.09.72.13,1.38.15,1.96Z"/>
          <path class="cls-7" d="M52.23,123.7l-3.52,1.75-1.55-1.8v-.02c2.18-.56,3.77-.91,4.89-1.13.08.42.14.82.18,1.2Z"/>
          <path class="cls-17" d="M52.39,6.5c-.38.09-.8.22-1.23.37.38-.15.79-.27,1.23-.37Z"/>
          <path class="cls-12" d="M51.31,80.59c.42,0,.76.61.76,1.38s-.34,1.38-.76,1.38-.75-.62-.75-1.38.34-1.38.75-1.38Z"/>
          <path class="cls-11" d="M51.05,118.71c.49,1.35.8,2.63,1,3.79-1.12.22-2.71.57-4.9,1.13,0,0-32.81-22.56-31.02-15.77,1.79,6.8,11.63,17.94,11.63,17.94,8.2-3.12,3.88,10.33,3.88,10.33l-2.99-5.71c-3.03-5.8-8.64,1.36-8.64,1.36-1.05-1.9-8.06,4.62-8.06,4.62-1.94-3.67,4.78-6.79,4.78-6.79-2.84-1.09-7.76,5.43-7.76,5.43-3.58-4.75,9.54-9.78,9.54-9.78-12.64-21.55-14.69-28.43-13.12-29.63,1.58-1.2,8.87,1.77,16.99,5.57,10.49,4.9,22.37,11.19,25.08,11.69.15.03.32.05.48.03.83,1.11,2.14,3.09,3.11,5.79Z"/>
          <path class="cls-17" d="M51.12,6.88c-.2.08-.4.17-.61.26.19-.1.39-.18.61-.26Z"/>
          <path class="cls-17" d="M43.85,6.28c7.8-1,10.16-.07,10.16-.07,0,0-4.84-.42-10.16.07Z"/>
          <path class="cls-19" d="M50.1,19.87c.18.24.37.47.55.68-.25-.21-.43-.45-.55-.68Z"/>
          <path class="cls-17" d="M49.82,18.65s-.06.6.28,1.22c-1.23-1.6-2.36-3.78-2.77-5.94.39,1.33,1.17,2.89,2.49,4.72Z"/>
          <path class="cls-14" d="M48.78,125.53c-.06-.01-.11-.02-.16-.03l.09-.05.07.08Z"/>
          <path class="cls-15" d="M48.58,112.05c0,.08,0,.16-.01.23-.79-.48-1.51-.82-2.05-1.04.2.21.47.51.79.88.14.17.36.44.63.8-.16.02-.33,0-.48-.03-2.71-.5-14.59-6.79-25.08-11.69l.48-1.03c2,.95,4.98,1.14,9.45,1.43h.01c2.64.71,9.31.85,11.47.8,2.51,3.92,4.79,7.93,4.79,9.65Z"/>
          <path class="cls-15" d="M48.57,112.28c-.03.21-.1.37-.23.48-.11.09-.25.15-.4.16-.27-.36-.49-.63-.63-.8-.32-.37-.59-.67-.79-.88.54.22,1.26.56,2.05,1.04Z"/>
          <path class="cls-19" d="M49.86,7.47c-2.49,1.48-3,3.96-2.53,6.46-1.04-3.48.61-5.41,2.53-6.46Z"/>
          <path class="cls-19" d="M43.72,102.29c1.08.05.92.1.07.11-.02-.04-.05-.07-.07-.11Z"/>
          <path class="cls-10" d="M34.65,96.56c.92,2.32,7.79,5.84,5.09,5.59-2.85-.26-5.3-.41-7.42-.55h-.01c-2.08-.56-4.26-2.34-6.16-6.55l2.66-1.04c.42.83,1.44,1.35,2.37,1.77.85.38,2.52.78,3.47.78Z"/>
          <path class="cls-19" d="M43.85,6.28c-1.51.19-3.23.45-5.17.81l-.15.03c1.72-.42,3.54-.68,5.32-.84Z"/>
          <path class="cls-17" d="M30.26,17.1c.14.08.28.16.43.23-.07-.03-.22-.11-.43-.23Z"/>
          <path class="cls-17" d="M38.53,7.12c-5.48,1.33-9.83,4.2-7.8,10.22-.18-.38-3.69-8.05,7.8-10.22Z"/>
          <path class="cls-17" d="M28.99,16.37c.21.12.43.25.65.38-.2-.11-.41-.24-.65-.38Z"/>
          <path class="cls-17" d="M26.15,95.05c1.9,4.21,4.08,5.99,6.16,6.55-4.47-.29-7.45-.48-9.45-1.43-2.77-1.32-3.7-4.08-4.19-10.53-1.01-13.3,2.53-20.1,2.53-20.1.97,12.82,2.79,20.73,4.95,25.51Z"/>
          <path class="cls-17" d="M13.97,46.69c-.43,13.23,1.06,24.07,7.23,22.85,0,0-9.8,3.62-7.23-22.85Z"/>
          <path class="cls-19" d="M13.97,46.69C14.65,26.04,20.01-.43,19.57,4.04v.03c-.16.81-3.06,16.62-5.59,42.52,0,.03,0,.07,0,.1Z"/>
          <path class="cls-17" d="M19.57,4.07c0,.5.18,6.22,8.36,11.63-3.46-2.26-8.84-6.63-8.36-11.63Z"/>
        </g>
        <g>
          <path class="cls-4" d="M46.15,78.69c1.64-.29,2.78-1.32,4.42-1.62.98-.18,2.07-.06,2.92.31"/>
          <path class="cls-4" d="M74.01,76.31c-.59-.15-1.12-.43-1.62-.75-.91-.56-1.75-1.24-2.8-1.51-.98-.26-2.08-.1-2.93.42"/>
          <path class="cls-3" d="M56.47,89.64c.68-.13,1.04-.79,1.57-1.21,1.07-.85,3.01-.45,3.57.75"/>
          <path class="cls-3" d="M66.67,120.21c4.03-1.36,7.83-3.32,11.27-5.7-2.18-.2-4.35-.4-6.53-.6-3-.27-6.06-.55-8.86-1.59-.61-.22-1.22-.49-1.7-.91-.07-.05-.14-.11-.2-.17"/>
          <path class="cls-3" d="M64.66,120.85c.64-.18,1.27-.38,1.9-.6"/>
          <path class="cls-3" d="M62.93,121.3c.12-.03.25-.06.37-.09"/>
          <path class="cls-3" d="M58.37,122.12c1.45-.17,2.9-.43,4.32-.76"/>
          <path class="cls-3" d="M55.13,122.36c1.08-.03,2.16-.12,3.23-.24"/>
          <path class="cls-3" d="M66.56,120.25c-.33.12-.64.22-.92.31-.33.1-.66.2-.98.29-.45.13-.9.25-1.36.36-.13.04-.26.07-.37.09l-.24.06c-.4.1-.64.15-.64.15-1.11.24-2.26.49-3.68.61h-.01"/>
        </g>
      </g>
    </g>
    <path class="cls-9" d="M34.88,179.7c-1.26.09-2.54.2-3.68.74-3.59,1.68-4.12,6.84-2.42,10.42,2.85,6.01,9.91,9.01,16.55,9.32,6.65.31,13.18-1.52,19.75-2.6,6.94-1.14,13.99-1.45,21.02-1.75,9.15-.4,18.3-.79,27.46-1.19,3.74-.16,7.53-.32,11.17.57,8.66,2.11,15.23,9.8,23.99,11.49,1.12.22,2.57-11.22,2.47-12.37-.37-4.24-2.38-7.65-5.68-10.29-5.41-4.33-10.58-4.52-17.02-3.67-18.99,2.52-39.31-.82-58.43-1.29-11.73-.29-23.48-.24-35.18.62Z"/>
    <path class="cls-6" d="M180.8,253.22c-6.07.5-13.02.7-17.25-3.68-2,1.72-2.67,4.81-1.56,7.2s3.91,3.87,6.51,3.44c2.07-.34,4.15-1.73,6.09-.94.85.34,1.48,1.05,2.15,1.67,3.88,3.61,9.4,4.72,14.61,5.68,4.49.83,8.98,1.66,13.48,2.49,3.79.7,7.74,1.39,11.45.36s7.1-4.35,6.86-8.19c-1.03-16.48-33.44-8.77-42.34-8.03Z"/>
  </g>
</svg>