<?xml version="1.0" encoding="UTF-8"?>
<svg id="Layer_2" data-name="Layer 2" xmlns="http://www.w3.org/2000/svg" viewBox="0 0 103.36 152.87">
  <defs>
    <style>
      .cls-1, .cls-2 {
        fill: none;
        stroke: #130905;
        stroke-miterlimit: 10;
      }

      .cls-3 {
        fill: #f1f2f2;
      }

      .cls-4 {
        fill: #f04b36;
      }

      .cls-5 {
        fill: #d1d3d4;
      }

      .cls-6 {
        fill: #fbc0ad;
      }

      .cls-7 {
        fill: #e6e7e8;
      }

      .cls-2 {
        stroke-width: .75px;
      }

      .cls-8 {
        fill: #bcbec0;
      }

      .cls-9 {
        fill: #130905;
      }
    </style>
  </defs>
  <g id="Layer_1-2" data-name="Layer 1">
    <g>
      <g>
        <path class="cls-7" d="M38.22,101.35c.39,0,.77,0,1.15,0-3.75,5.37-1.84,14.3-2.3,17.42-.46,3.11,4.73,11.31,4.73,11.31,10.62,9.05,10.62,20.07,10.62,20.07-1.71,1.64-7.19,2.06-11.24,2.12l-4.66-.04s-.02-19.39,0-35.54c0-5.96,0-11.48,0-15.41h0c.56.03,1.12.05,1.7.06Z"/>
        <path class="cls-7" d="M36.52,152.24l4.66.04c-2.63.06-4.66-.04-4.66-.04Z"/>
        <path class="cls-6" d="M31.27,37.96c-6.74,1.4-6.12,6.35-6.12,6.35l-.73.07h-.04s-.03-.04-.06-.07c.07-.84.11-1.66.1-2.44-.01-.46-.03-.9-.09-1.33-.16-1.5-.59-2.87-1.54-4.06-1.96-2.48-4.39-2.1-6.91-5.51-.87-1.19-1.27-2.18-1.88-3.71-1.72-4.34-3.23-8.07-2.43-12.44.96-5.24,4.68-8.44,6-9.58C22.29,1.17,27.58.62,29.45.51c2.56-.51,8.55-1.35,14.77,1.61,0,0,2.95,1.41,5.48,3.73,6.7,6.18,7.76,17.46,7.79,23.78-.31-.04-.48-.06-.48-.06l.32,4.5c-6.39-.86-7.53,7.36-7.53,7.36l-12.58,1.26c-.24-1.96-1.76-3.15-3.21-3.84-1.41-.68-2.74-.89-2.74-.89Z"/>
        <path class="cls-9" d="M15.84,43.03c-1.72,3.09-1.42,5.25,1.96,6.86s6.13-1.82,6.13-1.82c-.16.96-.37,1.86-.6,2.69-.85.7-5.24,2.62-8.88-1.21-3.63-3.84-.26-6.78,2.2-9.06,2.45-2.28,7.77,1.38,7.77,1.38.01.78-.03,1.6-.1,2.44-.08-.11-.2-.28-.39-.53-.86-1.16-6.37-3.84-8.09-.75Z"/>
        <path class="cls-6" d="M31.85,40.02h.01c.2.02.41.05.62.09,3.55.7,3.46,4.59,3.46,4.59,0,0,0,3.68-4.24,4.33s-4.93-4.33-4.93-4.33c-.12-2.73,1.89-4.99,5.08-4.68Z"/>
        <path class="cls-9" d="M24.32,44.39c-.04.57-.09,1.14-.14,1.73,0,.03-.01.06-.01.09l-3.53.24v-1.73l3.68-.33Z"/>
        <path class="cls-5" d="M36.83,88.04s3.31,4.54,5.56,2.73c1.34,1.22,5.17-2.97,5.17-2.97,0,0,3.51-5.57,2.44-7.08h-.01c1.26-1.48,2.6-3.51,3.96-6.29,0,0,2.48-3,6.05-7.13,2.85-3.3,6.41-7.32,9.96-11.1,0,0-1.93-1.31-3.63-2.7-1.32-1.08-2.51-2.22-2.55-2.82-.05-.64-.18-1.13.36-2.05.62-1.06,2.16-2.69,5.82-5.76l-12.47-12.81v-.43c3.69.49,27.58,4.1,34.44,16.17,7.45,13.09,9.09,7.81,11.43,38.54v68.53s-24.15-1.47-34.44-15.23c-10.3-13.76-13.59-23.02-12.64-39.98-3.31,1.49-9.26,3.64-16.91,3.7-.38,0-.76,0-1.15,0-.58-.01-1.14-.03-1.7-.07-8.25-.48-14.56-3.31-18.12-5.29-.29-.79-.72-1.23-1.29-.75,1.04-1,2.58-2.73,3.78-5.27,1.19-2.55,1.54-4.85,1.64-6.29h3.06l1.33,2.39,6.35,1.97h3.56Z"/>
        <path class="cls-8" d="M57.49,30.06l12.47,12.81c-3.66,3.07-5.2,4.7-5.82,5.76l-2.43-.16c.22-.46.25-.94.25-1.38.01-2.42-.77-3.28-1.44-3.58-.13-.05-.12-.01-.98-.11-.67-.08-1.21-.16-1.56-.21l-.65-9.12c.04-.48.15-1.94.16-4.01Z"/>
        <path class="cls-9" d="M24.18,46.12c.05-.59.1-1.16.14-1.73h.06c.21.25.07.02.04-.01l.73-.07s-.62-4.95,6.12-6.35c0,0,1.33.21,2.74.89,1.45.69,2.97,1.88,3.21,3.84l12.58-1.26s1.14-8.22,7.53-7.36l.65,9.12-2.68.02.61,6.94c1.56.13,2.74.1,3.56-.26-.24,4.58,4.14,4.17,4.14,4.17,0,0-1.33,2.99-3.61,2.51v10.73c-3.57,4.13-6.05,7.13-6.05,7.13-1.36,2.78-2.7,4.81-3.96,6.28-.41.5-.82.93-1.22,1.3h0c-3.34,3.17-5.79,2.46-5.79,2.46l-.58,6.3c-2.25,1.81-5.56-2.73-5.56-2.73h-3.56l-6.35-1.97-1.33-2.39h-4.76c-1.47-5.27,5.79-10.42,5.79-10.42,0,0-3.44,4.5,1.18,5.13,4.61.63,16.85-.85,20.14-6.01,3.28-5.16,3.86-4.47,4.08-11.7,0,0-4.31,3.28-6.72,1.67,0,0,6.27-4.56,5.26-12.93-.5-4.11-.66-5.69-.69-6.24h.06s-.1-.56-.06,0l-12.35,1.25s-.12,5.02-5.42,6.1c-5.31,1.09-6.71-4.4-6.71-4.4l-1.22.08s.01-.06.01-.09ZM31.7,49.03c4.24-.65,4.24-4.33,4.24-4.33,0,0,.09-3.89-3.46-4.59-.21-.04-.42-.07-.62-.09h-.01c-3.19-.31-5.2,1.95-5.08,4.68,0,0,.69,4.98,4.93,4.33Z"/>
        <path class="cls-8" d="M64.14,48.63c-.54.92-.41,1.41-.36,2.05.04.6,1.23,1.74,2.55,2.82l-2.72.56s-4.38.41-4.14-4.17c.82-.36,1.77-.74,1.96-.97.12-.15.21-.3.28-.45l2.43.16Z"/>
        <path class="cls-6" d="M60.52,43.51c.67.3,1.45,1.16,1.44,3.58,0,.44-.03.92-.25,1.38-.07.15-.16.3-.28.45-.19.23-1.14.61-1.96.97s-2,.39-3.56.26l-.61-6.94,2.68-.02c.35.05.89.13,1.56.21.86.1.85.06.98.11Z"/>
        <path class="cls-8" d="M66.33,53.5c1.7,1.39,3.63,2.7,3.63,2.7-3.55,3.78-7.11,7.8-9.96,11.1v-10.73c2.28.48,3.61-2.51,3.61-2.51l2.72-.56Z"/>
        <path class="cls-6" d="M28.7,62.24c-1.83-.03-3.66-.09-5.49-.13-3.54-.08-4.1-.07-4.39-.52-.64-.98.95-2.59,2.46-5.41,0,0,1.17-2.2,2.05-5.42.23-.83.44-1.73.6-2.69.1-.6.18-1.22.24-1.86l1.22-.08s1.4,5.49,6.71,4.4c5.3-1.08,5.42-6.1,5.42-6.1l12.35-1.25c.03.55.19,2.13.69,6.24,1.01,8.37-5.26,12.93-5.26,12.93,2.41,1.61,6.72-1.67,6.72-1.67-.22,7.23-.8,6.54-4.08,11.7-3.29,5.16-15.53,6.64-20.14,6.01-4.62-.63-1.18-5.13-1.18-5.13,0,0,3.78-2.39,2.08-11.02Z"/>
        <path class="cls-8" d="M48.76,82.02h0c.4-.38.81-.81,1.22-1.31h.01c1.07,1.52-2.44,7.09-2.44,7.09,0,0-3.83,4.19-5.17,2.97l.58-6.3s2.45.71,5.79-2.45Z"/>
        <path class="cls-6" d="M20.83,83.68h1.7c-.1,1.44-.45,3.74-1.64,6.29-1.2,2.54-2.74,4.27-3.78,5.27-1.68,1.38-4.62.11-4.62.11-3.97-1.3-5.49-3.29-5.71-5.48-.02-.13-.03-.27-.03-.41-.03-.9-.18-4.22,2.17-6.45.34-.33,1.61-1.46,3.52-1.71.55-.08,1.31-.06,3.34.46.69.18,1.36.4,1.98.62,1.77.63,3.07,1.3,3.07,1.3Z"/>
        <path class="cls-3" d="M21.2,76.6c1.16,1.27-1.96,1.33-1.96,1.33l-1.48,4.45c-.62-.22-1.29-.44-1.98-.62-2.03-.52-2.79-.54-3.34-.46l1.9-5.39-1.04-.81c-1.73-1.12,0-1.03,0-1.03.14-.32,6.75,1.27,7.9,2.53Z"/>
        <path class="cls-3" d="M18.4,95.99c.57,1.52.66,4.37.44,4.67-.35.46-.81,7.21-7.96,7.73-3.05.22-5.48-.65-7.26-2-.42-.32-3.26-2.65-3.59-6.42-.36-4.06,2.33-8.19,6.75-10.1.22,2.19,1.74,4.18,5.71,5.48,0,0,2.94,1.27,4.62-.11.38.23.81.48,1.29.75ZM16.95,102.45l-14.55-7.33s-1.56,6.98.23,8.31,3.19,4.7,8.72,3.29,5.6-4.27,5.6-4.27Z"/>
        <path class="cls-4" d="M2.4,95.12l14.55,7.33s-.07,2.86-5.6,4.27-6.93-1.96-8.72-3.29-.23-8.31-.23-8.31Z"/>
      </g>
      <g>
        <path class="cls-1" d="M38.81,36.26l-4.8,2.59-2.15,1.17h-.01l-2.9,1.57"/>
        <polyline class="cls-2" points="24.7 40.77 24.33 40.54 21.46 38.71"/>
      </g>
    </g>
  </g>
</svg>