<?xml version="1.0" encoding="UTF-8"?>
<svg id="Layer_2" data-name="Layer 2" xmlns="http://www.w3.org/2000/svg" viewBox="0 0 131.68 126.74">
  <defs>
    <style>
      .cls-1 {
        fill: #c49a6c;
      }

      .cls-2 {
        fill: #ed9fb7;
      }

      .cls-3 {
        fill: none;
        stroke: #dd2d26;
        stroke-miterlimit: 10;
        stroke-width: 10px;
      }

      .cls-4 {
        fill: #dd2d26;
      }

      .cls-5 {
        fill: #27aae1;
      }
    </style>
  </defs>
  <g id="Layer_1-2" data-name="Layer 1">
    <g>
      <g>
        <polygon class="cls-4" points="117.93 44.76 103.39 44.76 100.28 44.76 28.28 44.76 13.74 44.76 65.83 16.03 117.93 44.76"/>
        <polygon class="cls-2" points="103.39 44.76 103.39 100.15 96.12 100.15 96.12 63.37 75.01 63.37 75.01 100.15 65.83 100.15 65.83 63.37 39.7 63.37 39.7 100.15 28.28 100.15 28.28 44.76 100.28 44.76 103.39 44.76"/>
        <path class="cls-1" d="M96.12,63.37v36.78h-21.11v-36.78h21.11ZM94.05,99.8v-9.86h-7.45v9.86h7.45ZM94.05,87.69v-9.87h-7.45v9.87h7.45ZM94.05,75.57v-9.86h-7.45v9.86h7.45ZM84.35,99.8v-9.86h-7.44v9.86h7.44ZM84.35,87.69v-9.87h-7.44v9.87h7.44ZM84.35,75.57v-9.86h-7.44v9.86h7.44Z"/>
        <rect class="cls-5" x="86.6" y="89.94" width="7.45" height="9.86"/>
        <rect class="cls-5" x="86.6" y="77.82" width="7.45" height="9.87"/>
        <rect class="cls-5" x="86.6" y="65.71" width="7.45" height="9.86"/>
        <rect class="cls-5" x="76.91" y="89.94" width="7.44" height="9.86"/>
        <rect class="cls-5" x="76.91" y="77.82" width="7.44" height="9.87"/>
        <rect class="cls-5" x="76.91" y="65.71" width="7.44" height="9.86"/>
        <path class="cls-1" d="M65.83,63.37v36.78h-26.13v-36.78h26.13ZM62.89,77.39v-9.87h-7.44v9.87h7.44ZM50.43,77.39v-9.87h-7.44v9.87h7.44Z"/>
        <rect class="cls-5" x="55.45" y="67.52" width="7.44" height="9.87"/>
        <rect class="cls-5" x="42.99" y="67.52" width="7.44" height="9.87"/>
      </g>
      <g>
        <path class="cls-3" d="M126.68,63.37c0-32.24-27.24-58.37-60.84-58.37-17.9,0-34,7.42-45.13,19.22l90.25,78.29c9.76-10.35,15.71-24.08,15.71-39.15Z"/>
        <path class="cls-3" d="M65.84,63.37L20.71,24.22c-9.76,10.35-15.71,24.08-15.71,39.15,0,32.24,27.24,58.37,60.84,58.37,17.9,0,33.99-7.42,45.13-19.23l-45.13-39.15Z"/>
      </g>
    </g>
  </g>
</svg>