<?xml version="1.0" encoding="UTF-8"?>
<svg id="Layer_2" data-name="Layer 2" xmlns="http://www.w3.org/2000/svg" viewBox="0 0 120.47 80.51">
  <defs>
    <style>
      .cls-1 {
        fill: #be748c;
      }

      .cls-2 {
        fill: #fff;
      }

      .cls-3 {
        fill: #ec008c;
      }

      .cls-4 {
        fill: #ed9fb7;
      }

      .cls-5 {
        fill: #fbc0ad;
      }
    </style>
  </defs>
  <g id="Layer_1-2" data-name="Layer 1">
    <g>
      <g>
        <path class="cls-3" d="M62.68,71.77c-31.12,0-56.5-5.28-57.53-11.9l.15-.37h114.95c-.11,6.79-25.85,12.27-57.57,12.27Z"/>
        <path class="cls-4" d="M5.16,59.87c1.03,6.62,26.41,11.9,57.53,11.9s57.45-5.48,57.57-12.27h.22l-6.74,16.54c-9.28,1.27-8.21,1.39-44.56,3.99C32.82,82.62,0,73.81,0,73.81l5.16-13.94Z"/>
        <path class="cls-3" d="M5.3,59.5l-.15.37c-.04-.14-.04-.28-.04-.42,0-6.8,25.78-12.32,57.57-12.32s57.57,5.52,57.57,12.32v.05H5.3Z"/>
      </g>
      <g>
        <path class="cls-1" d="M110.63,35.14s.72,3.42,0,4c-1.59.4-2.93.73-3.91.98-4.01,1.02-4.78,1.23-5.35,1.38-1.88.53-1.85.56-3.02.85-2.36.59-3.79.77-4.29.82-.75.09-1.31.12-2.42.17-3.06.15-4.59.22-6.24-.03-1.36-.2-1.45-.38-3.33-.65-1.45-.21-2.54-.28-3-.3-3.39-.21-7.19-.7-8.37-.87-2.02-.29-4.91-.9-8.4-2.3-2.12-3.06-28.91-2.43-28.91-2.43l-11.78-.11c.22-2.98,2.17-27.98,6.94-29.44,1.25-.38,2.32-.21,2.32-.21,2.17.33,3.11,2.11,5.43,4.2.91.82,2.33,1.96,4.37,3.05.87.02,6.2,1.54,8.59-4.29S57.96-2.91,62.26,1.78c1.22,1.33,3.54,3.67,6.41,6.37,0,0-10.25,5.04-8.15,7.6,2.11,2.56,3.93-.34,10.87-5.11,1.44,1.3,2.95,2.62,4.49,3.91,0,0-10.84,5.98-7.38,7.71,3.47,1.73,3.27-1.02,10.64-5.06,1.62,1.27,3.23,2.46,4.77,3.49,0,0-11.16,5.13-7.5,7.47,3.67,2.34,5.95-3.24,10.93-5.38,1.79.96,3.39,1.58,4.68,1.7,7.43.7,16.1,3.76,18.61,10.66Z"/>
        <path class="cls-2" d="M83.91,20.69c1.19.8,2.35,1.51,3.43,2.09-4.98,2.14-7.26,7.72-10.93,5.38-3.66-2.34,7.5-7.47,7.5-7.47Z"/>
        <path class="cls-2" d="M75.88,14.55c1.08.91,2.17,1.8,3.26,2.65-7.37,4.04-7.17,6.79-10.64,5.06-3.46-1.73,7.38-7.71,7.38-7.71Z"/>
        <path class="cls-2" d="M68.67,8.15c.86.8,1.78,1.64,2.72,2.49-6.94,4.77-8.76,7.67-10.87,5.11-2.1-2.56,8.15-7.6,8.15-7.6Z"/>
        <path class="cls-2" d="M43.11,48.49c1.1,2.04-.98,3.09-.98,3.09,0,0-3.66,3.64-5.02,3.6-1.37-.03-3.63-3.05-4.98-3.88-1.34-.83-1.6-1.84-.31-3.17s3.84,2.22,3.84,2.22c0,0,.15-2.71.01-5.63-.15-2.93,1.7-2.43,1.7-2.43,2.54-1.11,1.36,8.13,1.36,8.13,0,0,3.28-3.97,4.38-1.93Z"/>
        <path class="cls-5" d="M21.61,36.65l11.78.11s26.79-.63,28.91,2.43c3.49,1.4,6.38,2.01,8.4,2.3,1.18.17,4.98.66,8.37.87.46.02,1.55.09,3,.3,1.88.27,1.97.45,3.33.65,1.65.25,3.18.18,6.24.03,1.11-.05,1.67-.08,2.42-.17.5-.05,1.93-.23,4.29-.82,1.17-.29,1.14-.32,3.02-.85.57-.15,1.34-.36,5.35-1.38.98-.25,2.32-.58,3.91-.98-.71.57,2.94-.21,1.37,4-1.57,4.2-1.16,8.71-13.67,14.21s-26.54,2.14-31.74,2.36c0,0-9.72-9.67-18,.09,0,0-30.3,3.61-30.37-4.53-.06-8.14,1.24-19.19,3.39-18.62ZM42.13,51.58s2.08-1.05.98-3.09-4.38,1.93-4.38,1.93c0,0,1.18-9.24-1.36-8.13,0,0-1.85-.5-1.7,2.43.14,2.92-.01,5.63-.01,5.63,0,0-2.55-3.55-3.84-2.22s-1.03,2.34.31,3.17c1.35.83,3.61,3.85,4.98,3.88,1.36.04,5.02-3.6,5.02-3.6Z"/>
      </g>
    </g>
  </g>
</svg>